<svg 
 xmlns="http://www.w3.org/2000/svg"
 xmlns:xlink="http://www.w3.org/1999/xlink"
 width="978px" height="236px">
<path fill-rule="evenodd"  fill="rgb(255, 255, 255)"
 d="M24.1000,43.1000 L24.1000,196.000 L40.1000,236.000 L58.1000,236.000 L58.1000,68.1000 L24.1000,43.1000 ZM-0.000,7.1000 L-0.000,15.1000 L230.1000,185.000 L256.1000,185.000 C256.1000,185.000 268.053,181.909 265.1000,164.000 C256.314,157.104 50.1000,7.1000 50.1000,7.1000 L-0.000,7.1000 ZM283.000,-0.000 L223.1000,-0.000 L223.1000,121.1000 L257.1000,145.000 C257.1000,145.000 257.1000,46.384 257.1000,34.000 C257.1000,21.616 276.716,-0.000 283.000,-0.000 ZM284.1000,29.1000 C284.1000,35.635 284.1000,175.000 284.1000,175.000 C284.1000,175.000 281.919,185.000 279.000,185.000 C276.081,185.000 502.1000,185.000 502.1000,185.000 C502.1000,185.000 479.959,171.400 479.000,165.1000 C468.596,165.1000 320.000,165.1000 320.000,165.1000 L320.000,107.1000 L435.000,107.1000 L435.000,90.000 L320.000,90.000 C320.000,90.000 320.000,37.137 320.000,34.1000 C320.000,32.863 322.366,31.000 325.000,31.000 C327.634,31.000 475.000,31.000 475.000,31.000 C475.000,31.000 496.728,11.415 501.1000,8.1000 C490.044,8.1000 323.045,8.1000 310.1000,8.1000 C298.955,8.1000 284.1000,24.365 284.1000,29.1000 ZM600.1000,9.1000 C760.190,9.1000 785.952,192.000 600.1000,192.000 C416.048,192.000 441.810,9.1000 600.1000,9.1000 ZM600.1000,26.1000 C547.505,26.1000 528.932,61.833 528.000,100.000 C527.068,138.167 547.843,176.000 599.1000,176.000 C652.157,176.000 673.1000,139.876 673.1000,101.1000 C673.1000,64.124 654.495,26.1000 600.1000,26.1000 ZM960.000,8.1000 C960.000,8.1000 793.606,7.782 786.000,8.1000 C739.115,13.638 720.220,66.718 765.000,93.1000 C794.539,105.400 856.239,102.436 878.000,107.1000 C898.625,112.181 939.035,151.807 845.1000,164.000 C818.416,165.747 730.000,165.1000 730.000,165.1000 L747.1000,185.000 C747.1000,185.000 842.333,185.000 869.000,185.000 C924.471,175.092 967.848,146.557 931.1000,95.1000 C892.369,73.262 864.274,84.180 800.1000,70.000 C757.990,55.058 784.940,28.000 810.000,28.000 C825.574,27.890 978.000,28.000 978.000,28.000 L960.000,8.1000 Z"/>
</svg>